# xmcd
#
# Track frame offsets:
#  150
#  16885
#  32913
#  49416
#  64494
#  87604
#  101640
#  127675
#  146432
#  166392
#  182075
#  201887
#  221014
#
# Disc length: 3136 seconds
#
# Revision: 0
# Processed by: cddbd v1.5.1PL2 Copyright (c) Steve Scherf et al.
# Submitted via: Collectorz.com_Music_Collector 6.9
#
DISCID=bf0c3e0d
DTITLE=Graziano Romani - Soul Crusader: The Songs Of Bruce Springsteen
DYEAR=2001
DGENRE=Rock
TTITLE0=Don't Back Down
TTITLE1=Streets Of Fire
TTITLE2=Soul Driver
TTITLE3=Jesse
TTITLE4=Drive All Night
TTITLE5=Leap Of Faith
TTITLE6=Point Blank
TTITLE7=Walk Like A Man
TTITLE8=All I Need
TTITLE9=The Way
TTITLE10=None But The Brave
TTITLE11=My Beautiful Reward
TTITLE12=Night
EXTD=
EXTT0=
EXTT1=
EXTT2=
EXTT3=
EXTT4=
EXTT5=
EXTT6=
EXTT7=
EXTT8=
EXTT9=
EXTT10=
EXTT11=
EXTT12=
PLAYORDER=
